<?xml version="1.0" encoding="utf-8"?>
<!-- Generator: Adobe Illustrator 24.3.0, SVG Export Plug-In . SVG Version: 6.00 Build 0)  -->
<svg version="1.1"
	 id="svg2" xmlns:cc="http://creativecommons.org/ns#" xmlns:dc="http://purl.org/dc/elements/1.1/" xmlns:rdf="http://www.w3.org/1999/02/22-rdf-syntax-ns#"
	 xmlns="http://www.w3.org/2000/svg" xmlns:xlink="http://www.w3.org/1999/xlink" x="0px" y="0px" viewBox="0 0 8 8"
	 style="enable-background:new 0 0 8 8;" xml:space="preserve">
<style type="text/css">
	.st0{fill:url(#SVGID_1_);}
	.st1{fill:#FFFFFF;}
</style>
<g id="layer1" transform="translate(0 -1044.4)">
	<linearGradient id="SVGID_1_" gradientUnits="userSpaceOnUse" x1="4" y1="1052.4" x2="4" y2="1044.4">
		<stop  offset="0.1085" style="stop-color:#FFFFFF;stop-opacity:0"/>
		<stop  offset="1" style="stop-color:#FF3333"/>
	</linearGradient>
	<path class="st0" d="M4,1044.4c-1.1,0-2,0.6-2,1.3v5.3c0,0.7,0.9,1.3,2,1.3c1.1,0,2-0.6,2-1.3v-5.3C6,1045,5.1,1044.4,4,1044.4z"/>
	<path class="st1" d="M4,1045.1c-0.9,0-1.6,0.5-1.6,1.1v4.4c0,0.6,0.7,1.1,1.6,1.1c0.9,0,1.6-0.5,1.6-1.1v-4.4
		C5.6,1045.6,4.9,1045.1,4,1045.1z"/>
</g>
</svg>
