<?xml version="1.0" encoding="utf-8"?>
<!-- Generator: Adobe Illustrator 24.3.0, SVG Export Plug-In . SVG Version: 6.00 Build 0)  -->
<svg version="1.1"
	 id="svg2" xmlns:cc="http://creativecommons.org/ns#" xmlns:dc="http://purl.org/dc/elements/1.1/" xmlns:rdf="http://www.w3.org/1999/02/22-rdf-syntax-ns#"
	 xmlns="http://www.w3.org/2000/svg" xmlns:xlink="http://www.w3.org/1999/xlink" x="0px" y="0px" viewBox="0 0 64 64"
	 style="enable-background:new 0 0 64 64;" xml:space="preserve">
<style type="text/css">
	.st0{fill:#FFFFFF;}
	.st1{fill:#330000;}
	.st2{fill:#CC6633;}
	.st3{fill:#663300;}
	.st4{fill:#CC3300;}
</style>
<circle cx="32" cy="32" r="32"/>
<g id="g4142" transform="matrix(.95 0 0 .95 1.6 50.993)">
	<path class="st0" d="M56.6-14.1C56.6-14.1,56.6-14.1,56.6-14.1c-2.2-0.3-4.4-0.6-6.6-0.9c-0.2,0-0.3-0.1-0.5-0.2
		c0.4-0.3,0.6-0.5,0.9-0.7c0.2-0.2,0.4-0.4,0.2-0.7c-0.2-0.3-0.5-0.2-0.7,0c-0.3,0.2-0.6,0.5-0.8,0.6c-0.4-0.3-0.8-0.7-1.2-1
		c0.3-0.2,0.5-0.4,0.7-0.6c0.2-0.2,0.5-0.4,0.2-0.7c-0.3-0.3-0.5-0.2-0.8,0c-0.3,0.2-0.5,0.4-0.7,0.6c-0.7-0.6-1.4-1.2-2-1.8
		c-0.8-0.8-0.7-0.8-1.7-0.2c-0.6,0.4-1.2,0.7-1.8,1.1c0-1.6,0-3.2,0-4.8c0-0.1,0.1-0.2,0.2-0.3c0.6-0.4,1.3-0.7,2-1
		c0.2,0.2,0.4,0.5,0.6,0.7c-0.3,0.2-0.5,0.4-0.8,0.6c-0.2,0.2-0.5,0.4-0.2,0.7c0.3,0.3,0.5,0.2,0.8,0c0.3-0.2,0.5-0.4,0.8-0.6
		c0.4,0.4,0.7,0.7,1,1.1c-0.3,0.2-0.6,0.4-0.8,0.6c-0.2,0.2-0.3,0.4-0.1,0.6c0.2,0.2,0.4,0.2,0.6,0c0.3-0.2,0.6-0.4,0.9-0.7
		c0.4,0.4,0.8,0.8,1.1,1.2c0.2,0.3,0.5,0.4,0.9,0.3c2.4-0.2,4.8-0.5,7.2-0.7c0.3,0,0.6,0,0.6-0.4c0-0.4-0.3-0.4-0.6-0.5
		c-2-0.3-4-0.6-6-0.8c-0.6-0.1-1-0.2-1.3-0.7c0.3-0.2,0.6-0.5,0.9-0.7c0.2-0.2,0.4-0.4,0.1-0.7c-0.2-0.2-0.5-0.2-0.7,0
		c-0.3,0.3-0.7,0.5-0.9,0.7c-0.4-0.3-0.8-0.6-1.2-1c0.3-0.3,0.6-0.5,0.9-0.7c0.2-0.2,0.3-0.4,0.1-0.6c-0.2-0.2-0.4-0.2-0.7,0
		c-0.3,0.2-0.6,0.5-0.9,0.6c-0.7-0.6-1.3-1.2-1.9-1.7c-0.4-0.4-0.5-0.4-1-0.1c-0.6,0.3-1.2,0.7-1.8,1.1c-0.2-1.3,0.1-2.7-1.1-3.6
		c0.7-0.1,0.7-0.2,0.7-0.8c0-0.7-0.3-1.3-0.9-1.8c0.9-0.1,0.9-0.1,0.9-1c0-0.1,0-0.2,0-0.3c-0.4-1.9-1.4-3.3-2.9-4.6
		c-0.7-0.6-1.6-1.1-2.4-1.7c0.6-1.2,1.4-2.4,2.5-3.3c0.6-0.5,1.2-0.8,1.9-0.9c1.1-0.1,2,0.3,2.8,1c1.2,1,2.1,2.2,2.9,3.5
		c2.1,3.5,3.5,7.2,4.8,11c0.4,1.3,0.8,2.6,1.2,3.8c0.1,0.3,0.2,0.5,0.6,0.4c0.3-0.1,0.4-0.3,0.3-0.6c0-0.1,0-0.2-0.1-0.3
		c-0.6-1.8-1.1-3.7-1.8-5.5c-1.2-3.3-2.5-6.6-4.4-9.6c-0.9-1.5-2-2.8-3.5-3.8c-1.6-1-3.3-1-4.9,0.1c-1.1,0.7-1.9,1.8-2.6,2.9
		c-0.2,0.3-0.4,0.7-0.6,1.1c-2.1-0.8-4.3-0.8-6.4,0c-0.1-0.1-0.1-0.2-0.2-0.3c-0.7-1.4-1.6-2.7-2.9-3.6c-1.3-0.9-2.7-1.1-4.1-0.3
		c-0.6,0.3-1.2,0.8-1.7,1.3c-1.5,1.5-2.6,3.3-3.5,5.1c-2.1,4.2-3.5,8.6-4.9,13c-0.1,0.3-0.1,0.6,0.3,0.7c0.4,0.1,0.5-0.2,0.6-0.4
		c1-3.3,2-6.6,3.4-9.7c0.9-2.3,2-4.5,3.5-6.5c0.8-1.1,1.7-2.1,2.9-2.7c1-0.5,2-0.4,2.9,0.2c1.5,0.9,2.3,2.3,3,3.8
		c-1.4,0.7-2.5,1.5-3.4,2.6c-1,1.2-1.8,2.4-1.9,3.9c-0.1,0.8,0,0.8,0.8,0.9c0,0,0,0,0.1,0.1c-0.6,0.5-0.9,1.2-0.9,2
		c0,0.3,0.2,0.5,0.5,0.5c0.1,0,0.2,0,0.4,0c-1.4,1-0.9,2.4-1.2,3.6c-0.6-0.4-1.3-0.7-1.9-1.1c-0.3-0.2-0.6-0.2-0.9,0.1
		c-0.6,0.6-1.3,1.2-2,1.8c-0.3-0.2-0.6-0.4-0.9-0.7c-0.2-0.2-0.5-0.2-0.7,0c-0.2,0.2-0.1,0.4,0.1,0.6c0.3,0.2,0.6,0.4,0.9,0.7
		c-0.4,0.4-0.8,0.7-1.2,1c-0.3-0.2-0.5-0.4-0.8-0.6c-0.3-0.2-0.5-0.4-0.8-0.1c-0.3,0.3,0,0.5,0.3,0.7c0.3,0.2,0.5,0.4,0.9,0.7
		c-0.4,0.2-0.7,0.5-1.1,0.6c-2.1,0.3-4.3,0.6-6.4,0.9c-0.3,0-0.6,0.1-0.6,0.4c0,0.3,0.2,0.4,0.5,0.4c2.5,0.2,5,0.5,7.4,0.7
		c0.3,0,0.5,0,0.7-0.3c0.4-0.4,0.8-0.8,1.1-1.2c0.3,0.2,0.5,0.4,0.8,0.6c0.2,0.2,0.5,0.3,0.7,0c0.2-0.3,0.1-0.5-0.2-0.7
		c-0.3-0.2-0.5-0.4-0.8-0.6c0.4-0.4,0.7-0.7,1-1.1c0.3,0.2,0.6,0.5,0.9,0.7c0.3,0.2,0.5,0.3,0.7,0c0.2-0.3,0-0.5-0.2-0.7
		c-0.3-0.2-0.5-0.4-0.8-0.6c0.2-0.3,0.4-0.5,0.6-0.7c0.6,0.3,1.3,0.7,1.9,1c0.1,0,0.2,0.2,0.2,0.3c0,1.6,0,3.2,0,4.8
		c-0.7-0.4-1.5-0.9-2.2-1.3c-0.4-0.2-0.6-0.2-0.9,0.1c-0.8,0.7-1.6,1.4-2.4,2.2c-0.2-0.1-0.5-0.4-0.7-0.6c-0.2-0.2-0.5-0.3-0.7,0
		c-0.2,0.2-0.1,0.5,0.2,0.6c0.3,0.2,0.5,0.4,0.8,0.7c-0.4,0.3-0.8,0.7-1.2,1c-0.3-0.2-0.6-0.4-0.9-0.7c-0.2-0.2-0.5-0.2-0.7,0
		c-0.2,0.2-0.1,0.5,0.2,0.6c0.3,0.2,0.6,0.5,1,0.8c-0.3,0.1-0.4,0.2-0.6,0.2c-2.2,0.3-4.3,0.6-6.5,0.9c-0.3,0-0.6,0.1-0.5,0.5
		c0,0.3,0.3,0.4,0.6,0.4c2.5,0.2,5,0.5,7.5,0.7c0.2,0,0.4-0.1,0.6-0.2c0.3-0.3,0.6-0.6,0.9-0.9c0.3,0.3,0.6,0.5,1,0.7
		c0.2,0.1,0.5,0.1,0.6,0c0.2-0.2,0.1-0.4-0.1-0.6c-0.3-0.2-0.6-0.5-0.9-0.7c0.3-0.4,0.7-0.7,1-1.1c0.3,0.3,0.6,0.5,1,0.7
		c0.2,0.2,0.5,0.3,0.7,0c0.2-0.3,0-0.5-0.2-0.7c-0.3-0.2-0.6-0.4-0.9-0.7c0.3-0.4,0.7-0.7,1-1.1c0.9,0.5,1.9,1,2.8,1.5
		c0.1,0.1,0.2,0.2,0.2,0.3c0.2,1,0.3,1.9,0.5,2.9c0.1,0.5,0.2,1.1,0.4,1.7c-0.7-0.4-1.2-0.7-1.8-1.1c-0.5-0.3-0.7-0.2-0.9,0.3
		C20-10,19.4-8.6,18.8-7.2c-0.2,0.4-0.3,0.8-0.5,1.3c-0.4-0.1-0.8-0.3-1.2-0.4c-0.3-0.1-0.6-0.1-0.7,0.2c-0.1,0.3,0.1,0.5,0.4,0.6
		c0.4,0.1,0.8,0.3,1.2,0.4c-0.2,0.5-0.4,0.9-0.6,1.4C17-4,16.5-4.1,16.1-4.2c-0.3-0.1-0.6-0.1-0.7,0.2c-0.1,0.3,0.1,0.5,0.4,0.6
		c0.4,0.1,0.9,0.3,1.3,0.4c-0.2,0.6-0.4,1.1-0.7,1.6c-0.1,0.3-0.3,0.6-0.5,0.9c-1.3,1.6-2.7,3.3-4,4.9c-0.2,0.2-0.3,0.4-0.1,0.7
		c0.2,0.2,0.5,0.1,0.7-0.1c1.7-1.3,3.4-2.6,5.2-3.9C17.9,1,18,0.8,18.1,0.6c0.4-0.9,0.8-1.8,1.2-2.7c0.5,0.2,0.9,0.3,1.4,0.4
		c0.3,0.1,0.6,0.1,0.7-0.2c0.1-0.3-0.1-0.5-0.4-0.6c-0.4-0.1-0.9-0.3-1.3-0.4c0.2-0.5,0.4-0.9,0.6-1.4c0.5,0.2,1,0.3,1.4,0.4
		c0.3,0.1,0.6,0.1,0.7-0.2c0.1-0.3-0.1-0.5-0.4-0.6c-0.4-0.1-0.9-0.3-1.4-0.4c0.5-1.1,1-2.3,1.5-3.4c0.6,0.3,1.2,0.5,1.8,0.8
		c0.2,0.1,0.3,0.3,0.4,0.5c0.6,1.3,1.1,2.6,1.7,3.8c1.3,2.6,3,4.9,5.2,6.8C32,4,32,4,32.6,3.5c2-1.3,3.5-3.1,4.7-5
		c1.1-1.8,1.9-3.8,2.6-5.8c0.1-0.2,0.1-0.4,0.3-0.4c0.5-0.3,1.1-0.5,1.6-0.8c0.5,1.1,1,2.3,1.5,3.4c-0.5,0.2-0.9,0.3-1.3,0.4
		c-0.3,0.1-0.5,0.3-0.4,0.6c0.1,0.3,0.4,0.3,0.7,0.2c0.5-0.2,0.9-0.3,1.4-0.4c0.2,0.5,0.4,0.9,0.6,1.4c-0.5,0.2-0.9,0.3-1.3,0.4
		c-0.3,0.1-0.5,0.3-0.4,0.6c0.1,0.3,0.4,0.3,0.7,0.2c0.5-0.1,0.9-0.3,1.4-0.4c0.4,0.9,0.8,1.8,1.2,2.7C46,0.8,46.2,1,46.3,1.1
		c1.7,1.3,3.3,2.5,5,3.8c0.2,0.2,0.5,0.4,0.8,0.1c0.3-0.3,0.1-0.5-0.1-0.8c0,0-0.1-0.1-0.1-0.1c-1.2-1.5-2.5-3.1-3.7-4.6
		c-0.7-0.8-0.9-1.8-1.3-2.7c0.5-0.2,0.9-0.3,1.3-0.4c0.3-0.1,0.5-0.3,0.4-0.6c-0.1-0.3-0.4-0.3-0.7-0.2C47.5-4.1,47-4,46.5-3.8
		c-0.2-0.5-0.4-0.9-0.6-1.4c0.4-0.1,0.8-0.3,1.2-0.4c0.3-0.1,0.5-0.3,0.4-0.6c-0.1-0.3-0.4-0.3-0.6-0.2c-0.4,0.1-0.8,0.3-1.3,0.4
		c-0.1-0.1-0.1-0.2-0.2-0.4c-0.7-1.7-1.4-3.4-2.1-5.1c-0.2-0.6-0.4-0.6-1-0.3c-0.5,0.3-1.1,0.6-1.6,1c0.2-1.6,0.5-3.1,0.7-4.6
		c0-0.1,0.1-0.1,0.1-0.2c0.9-0.5,1.9-1,2.8-1.5c0.3,0.4,0.7,0.7,1,1.1c-0.3,0.3-0.6,0.5-0.9,0.7c-0.2,0.2-0.3,0.4-0.1,0.6
		c0.2,0.2,0.4,0.2,0.7,0c0.3-0.2,0.6-0.5,1-0.7c0.4,0.4,0.7,0.7,1,1.1c-0.3,0.2-0.6,0.5-0.9,0.7c-0.2,0.2-0.3,0.4-0.1,0.6
		c0.2,0.2,0.5,0.2,0.7,0c0.3-0.2,0.6-0.5,0.9-0.7c0.3,0.3,0.5,0.6,0.8,0.9c0.2,0.1,0.4,0.3,0.7,0.2c1.9-0.2,3.9-0.4,5.8-0.6
		c0.5-0.1,1.1-0.1,1.6-0.2c0.3,0,0.5-0.1,0.5-0.4C57.2-14,56.9-14.1,56.6-14.1z M21.8-24.7c-0.5-0.2-0.9-0.5-1.4-0.7
		c-0.6-0.3-0.6-0.3-1.1,0.2c-1.2,1.3-2.5,2.7-3.7,4C15.5-21,15.3-21,15.1-21c-1-0.1-2.1-0.2-3.1-0.3c-0.1,0-0.3,0-0.4-0.1
		c0,0,0,0,0-0.1c1-0.1,2-0.3,3-0.4c0.4-0.1,0.7-0.2,1-0.5c1.4-1.4,2.9-2.9,4.4-4.3c0,0,0.1-0.1,0.2-0.1c0.7,0.4,1.3,0.8,2,1.2
		c0.1,0.1,0.1,0.3,0.1,0.4c0,0.2,0,0.4,0,0.6C22-24.6,21.9-24.6,21.8-24.7z M20.9-17.3c-0.3-0.2-0.7-0.4-1-0.6
		c-0.4-0.2-0.6-0.2-0.9,0.1c-1.3,1.4-2.5,2.7-3.8,4.1c-0.2,0.2-0.4,0.3-0.7,0.2c-1.2-0.1-2.3-0.2-3.5-0.3c0,0,0,0,0-0.1
		c1-0.1,2-0.3,2.9-0.4c0.4-0.1,0.8-0.2,1.1-0.5c1.4-1.5,2.9-2.9,4.4-4.3c0,0,0.1-0.1,0.1-0.1c0.9,0.5,1.7,1,2.5,1.5
		c0.1,0.1,0.2,0.3,0.2,0.4c0,0.2,0,0.4,0.1,0.7C21.8-16.8,21.3-17,20.9-17.3z M32.4-40.1c3-0.4,8,3.7,8,6.7h-8V-40.1z M37-32.6
		c0.7,0,1.5,0.2,2.2,0.4c0.6,0.2,1,0.6,1.2,1.3H23.5c0.1-0.6,0.4-1,0.9-1.2c0.7-0.4,1.5-0.5,2.3-0.5C30.1-32.6,33.6-32.6,37-32.6z
		 M31.5-40.2v6.7h-8C24-36.7,27.9-40,31.5-40.2z M24.3-29.6c0.8-0.4,1.7-0.4,2.6-0.4c3.5,0,7.1,0,10.6,0c0.7,0,1.4,0.2,2.1,0.4
		c0.6,0.2,0.9,0.6,1,1.2H23.3C23.4-29,23.8-29.4,24.3-29.6z M23.8-8.6c-0.5-0.2-1-0.5-1.5-0.7c-0.5-0.2-0.7-0.2-0.9,0.3
		c-1.4,3-2.7,6.1-4.1,9.1c-0.1,0.2-0.2,0.4-0.4,0.5c-0.6,0.5-1.3,1-2,1.5c0.2-0.3,0.5-0.6,0.7-0.9c1-1,1.6-2.2,2.1-3.5
		c1-2.7,2.2-5.4,3.3-8c0.1-0.1,0.1-0.3,0.2-0.5c0.8,0.4,1.5,0.8,2.2,1.3c0.3,0.2,0.3,0.6,0.5,0.9C23.9-8.7,23.9-8.7,23.8-8.6z
		 M25.4-7.1c-1.4-3.6-2.1-7.4-2.3-11.3c-0.2-2.9-0.1-5.8,0.2-8.7c0-0.1,0-0.3,0.1-0.5h8.5c0,0.2,0,0.3,0,0.5
		c-0.1,2.9-0.1,5.8-0.3,8.7c-0.2,2.9-0.5,5.9-0.9,8.8c-0.3,2.1-0.7,4.3-1.7,6.2c-0.2,0.5-0.6,0.9-0.9,1.4C26.8-3.6,26-5.3,25.4-7.1z
		 M32.1,2.9c-1-0.6-3.2-3.2-3.7-4.2c1.2-0.9,1.6-2.2,2-3.5c0.7-2.4,1.1-4.8,1.4-7.3c0.2-1.6,0.3-3.1,0.5-4.7
		c0.1,0.6,0.1,1.2,0.2,1.7c0.3,3.4,0.7,6.9,1.7,10.2c0.2,0.7,0.5,1.4,0.8,2c0.3,0.6,0.7,1,1.1,1.6C35,0.4,33.7,1.8,32.1,2.9z
		 M41.1-10c0.5-0.3,1-0.6,1.6-1c0.4,1.1,0.9,2.1,1.3,3.1c1,2.4,1.9,4.7,2.9,7.1c0.2,0.4,0.5,0.7,0.8,1.1c0.4,0.5,0.8,1,1.2,1.6
		c-0.7-0.5-1.4-1.1-2.1-1.6c-0.1-0.1-0.1-0.2-0.2-0.4c-1.4-3-2.7-6-4.1-9.1c-0.2-0.5-0.4-0.6-0.9-0.3c-0.4,0.2-0.8,0.4-1.3,0.6
		C40.4-9.3,40.5-9.7,41.1-10z M40.5-14.1c-0.5,3.9-1.5,7.7-3.4,11.3c-0.2,0.3-0.3,0.6-0.5,0.9c-0.3-0.5-0.6-0.9-0.8-1.3
		c-0.8-1.7-1.2-3.5-1.5-5.3c-0.7-3.7-1-7.5-1.2-11.2c-0.1-2.5-0.2-4.9-0.3-7.4c0-0.1,0-0.3,0-0.5h8.1c0.1,0.8,0.1,1.5,0.1,2.2
		C41.1-21.5,41-17.8,40.5-14.1z M41.8-25.3c0-0.1,0.1-0.3,0.2-0.3c0.6-0.4,1.3-0.7,1.8-1.1c0.7,0.7,1.4,1.3,2.1,1.9
		c0.9,0.8,1.7,1.7,2.6,2.5c0.2,0.2,0.5,0.3,0.8,0.4c1,0.2,2.1,0.3,3.1,0.5c-0.1,0-0.2,0-0.3,0.1c-1.1,0.1-2.2,0.2-3.3,0.3
		c-0.1,0-0.3-0.1-0.5-0.2c-1.3-1.4-2.6-2.7-3.8-4.1c-0.3-0.3-0.5-0.4-0.9-0.1c-0.6,0.3-1.2,0.6-1.8,1C41.8-24.8,41.8-25,41.8-25.3z
		 M53-13.7c-1.2,0.1-2.4,0.2-3.7,0.3c-0.1,0-0.3-0.1-0.4-0.2c-1.3-1.4-2.6-2.7-3.9-4.1c-0.3-0.3-0.5-0.3-0.9-0.1
		c-0.8,0.5-1.6,0.9-2.5,1.3c0-0.3,0-0.6,0.1-0.9c0-0.1,0.1-0.2,0.2-0.3c0.8-0.5,1.7-1,2.4-1.4c0.8,0.8,1.7,1.5,2.5,2.2
		c0.8,0.8,1.6,1.6,2.5,2.4c0.2,0.2,0.5,0.2,0.8,0.2C51-14.1,52-13.9,53-13.7C53-13.8,53-13.8,53-13.7z"/>
	<path class="st1" d="M31.8-27c-0.1,2.9-0.1,5.8-0.3,8.7c-0.2,2.9-0.5,5.9-0.9,8.8c-0.3,2.1-0.7,4.3-1.7,6.2
		c-0.2,0.5-0.6,0.9-0.9,1.4c-1.1-1.7-1.9-3.4-2.6-5.2c-1.4-3.6-2.1-7.4-2.3-11.3c-0.2-2.9-0.1-5.8,0.2-8.7c0-0.1,0-0.3,0.1-0.5h8.5
		C31.8-27.3,31.8-27.2,31.8-27z"/>
	<path class="st1" d="M40.5-14.1c-0.5,3.9-1.5,7.7-3.4,11.3c-0.2,0.3-0.3,0.6-0.5,0.9c-0.3-0.5-0.6-0.9-0.8-1.3
		c-0.8-1.7-1.2-3.5-1.5-5.3c-0.7-3.7-1-7.5-1.2-11.2c-0.1-2.5-0.2-4.9-0.3-7.4c0-0.1,0-0.3,0-0.5h8.1c0.1,0.8,0.1,1.5,0.1,2.2
		C41.1-21.5,41-17.8,40.5-14.1z"/>
	<path class="st2" d="M36.1-1.2c-1,1.5-2.4,3-4,4.1c-1-0.6-3.2-3.2-3.7-4.2c1.2-0.9,1.6-2.2,2-3.5c0.7-2.4,1.1-4.8,1.4-7.3
		c0.2-1.6,0.3-3.1,0.5-4.7c0.1,0.6,0.1,1.2,0.2,1.7c0.3,3.4,0.7,6.9,1.7,10.2c0.2,0.7,0.5,1.4,0.8,2C35.2-2.2,35.7-1.7,36.1-1.2z"/>
	<path class="st3" d="M40.4-33.5h-8v-6.7C35.4-40.5,40.4-36.4,40.4-33.5z"/>
	<path class="st3" d="M31.5-40.2v6.7h-8C24-36.7,27.9-40,31.5-40.2z"/>
	<path class="st2" d="M40.4-30.9H23.5c0.1-0.6,0.4-1,0.9-1.2c0.7-0.4,1.5-0.5,2.3-0.5c3.4,0,6.9,0,10.4,0c0.7,0,1.5,0.2,2.2,0.4
		C39.9-32.1,40.3-31.6,40.4-30.9z"/>
	<path class="st2" d="M40.7-28.4H23.3c0.1-0.6,0.5-1,1-1.2c0.8-0.4,1.7-0.4,2.6-0.4c3.5,0,7.1,0,10.6,0c0.7,0,1.4,0.2,2.1,0.4
		C40.2-29.4,40.6-29,40.7-28.4z"/>
	<path class="st4" d="M23.9-8.7c0,0-0.1,0-0.1,0.1c-0.5-0.2-1-0.5-1.5-0.7c-0.5-0.2-0.7-0.2-0.9,0.3c-1.4,3-2.7,6.1-4.1,9.1
		c-0.1,0.2-0.2,0.4-0.4,0.5c-0.6,0.5-1.3,1-2,1.5c0.2-0.3,0.5-0.6,0.7-0.9c1-1,1.6-2.2,2.1-3.5c1-2.7,2.2-5.4,3.3-8
		c0.1-0.1,0.1-0.3,0.2-0.5c0.8,0.4,1.5,0.8,2.2,1.3C23.7-9.4,23.8-9,23.9-8.7z"/>
	<path class="st4" d="M48.9,2c-0.7-0.5-1.4-1.1-2.1-1.6c-0.1-0.1-0.1-0.2-0.2-0.4c-1.4-3-2.7-6-4.1-9.1c-0.2-0.5-0.4-0.6-0.9-0.3
		c-0.4,0.2-0.8,0.4-1.3,0.6c0-0.6,0.2-1,0.7-1.2c0.5-0.3,1-0.6,1.6-1c0.4,1.1,0.9,2.1,1.3,3.1c1,2.4,1.9,4.7,2.9,7.1
		c0.2,0.4,0.5,0.7,0.8,1.1C48.1,0.9,48.6,1.4,48.9,2z"/>
	<path class="st4" d="M53-13.8C53-13.8,53-13.8,53-13.8c-1.2,0.2-2.4,0.3-3.7,0.4c-0.1,0-0.3-0.1-0.4-0.2c-1.3-1.4-2.6-2.7-3.9-4.1
		c-0.3-0.3-0.5-0.3-0.9-0.1c-0.8,0.5-1.6,0.9-2.5,1.3c0-0.3,0-0.6,0.1-0.9c0-0.1,0.1-0.2,0.2-0.3c0.8-0.5,1.7-1,2.4-1.4
		c0.8,0.8,1.7,1.5,2.5,2.2c0.8,0.8,1.6,1.6,2.5,2.4c0.2,0.2,0.5,0.2,0.8,0.2C51-14.1,52-13.9,53-13.8z"/>
	<path class="st4" d="M22.3-16.5c-0.5-0.3-1-0.5-1.4-0.7c-0.3-0.2-0.7-0.4-1-0.6c-0.4-0.2-0.6-0.2-0.9,0.1c-1.3,1.4-2.5,2.7-3.8,4.1
		c-0.2,0.2-0.4,0.3-0.7,0.2c-1.2-0.1-2.3-0.2-3.5-0.3c0,0,0,0,0-0.1c1-0.1,2-0.3,2.9-0.4c0.4-0.1,0.8-0.2,1.1-0.5
		c1.4-1.5,2.9-2.9,4.4-4.3c0,0,0.1-0.1,0.1-0.1c0.9,0.5,1.7,1,2.5,1.5c0.1,0.1,0.2,0.3,0.2,0.4C22.3-17,22.3-16.8,22.3-16.5z"/>
	<path class="st4" d="M52.4-21.4c-0.1,0-0.2,0-0.3,0.1c-1.1,0.1-2.2,0.2-3.3,0.3c-0.1,0-0.3-0.1-0.5-0.2c-1.3-1.4-2.6-2.7-3.8-4.1
		c-0.3-0.3-0.5-0.4-0.9-0.1c-0.6,0.3-1.2,0.6-1.8,1c0-0.3-0.1-0.6,0-0.8c0-0.1,0.1-0.3,0.2-0.3c0.6-0.4,1.3-0.7,1.8-1.1
		c0.7,0.7,1.4,1.3,2.1,1.9c0.9,0.8,1.7,1.7,2.6,2.5c0.2,0.2,0.5,0.3,0.8,0.4C50.4-21.7,51.4-21.6,52.4-21.4z"/>
	<path class="st4" d="M22.2-24.5c-0.1-0.1-0.2-0.1-0.3-0.1c-0.5-0.2-0.9-0.5-1.4-0.7c-0.6-0.3-0.6-0.3-1.1,0.2
		c-1.2,1.3-2.5,2.7-3.7,4C15.5-21,15.3-21,15.1-21c-1-0.1-2.1-0.2-3.1-0.3c-0.1,0-0.3,0-0.4-0.1c0,0,0,0,0-0.1c1-0.1,2-0.3,3-0.4
		c0.4-0.1,0.7-0.2,1-0.5c1.4-1.4,2.9-2.9,4.4-4.3c0,0,0.1-0.1,0.2-0.1c0.7,0.4,1.3,0.8,2,1.2c0.1,0.1,0.1,0.3,0.1,0.4
		C22.2-24.9,22.2-24.8,22.2-24.5z"/>
</g>
</svg>
