<?xml version="1.0" encoding="utf-8"?>
<!-- Generator: Adobe Illustrator 24.3.0, SVG Export Plug-In . SVG Version: 6.00 Build 0)  -->
<svg version="1.1"
	 id="svg2" xmlns:cc="http://creativecommons.org/ns#" xmlns:dc="http://purl.org/dc/elements/1.1/" xmlns:rdf="http://www.w3.org/1999/02/22-rdf-syntax-ns#"
	 xmlns="http://www.w3.org/2000/svg" xmlns:xlink="http://www.w3.org/1999/xlink" x="0px" y="0px" viewBox="0 0 128 128"
	 style="enable-background:new 0 0 128 128;" xml:space="preserve">
<style type="text/css">
	.st0{fill:#FFFFFF;}
	.st1{fill:#330000;}
	.st2{fill:#CC6633;}
	.st3{fill:#663300;}
	.st4{fill:#CC3300;}
</style>
<g id="g4142" transform="matrix(.95 0 0 .95 1.6 50.993)">
	<path class="st0" d="M127.5,28.4c-0.1,0-0.1,0-0.2,0c-5.4-0.8-10.8-1.5-16.2-2.3c-0.4-0.1-0.8-0.3-1.3-0.5c0.9-0.7,1.6-1.3,2.3-1.8
		c0.6-0.5,1-1,0.4-1.7c-0.5-0.6-1.2-0.5-1.8,0c-0.8,0.6-1.6,1.2-2.1,1.6c-1.1-0.9-2-1.6-3-2.4c0.7-0.5,1.2-1,1.8-1.4
		c0.6-0.5,1.1-1,0.5-1.7c-0.6-0.8-1.3-0.4-1.9,0.1c-0.7,0.5-1.3,1-1.8,1.4c-1.7-1.6-3.5-3.1-5-4.6c-2.1-2.1-1.8-1.9-4.3-0.4
		c-1.5,0.9-3.1,1.8-4.6,2.7c0-4.1,0-8,0-12c0-0.2,0.2-0.5,0.4-0.6C92.4,3.7,94,2.9,95.7,2c0.6,0.6,1.1,1.2,1.6,1.7
		c-0.7,0.6-1.4,1.1-2,1.5c-0.6,0.5-1.1,1-0.5,1.7c0.6,0.8,1.3,0.4,1.9-0.1c0.7-0.5,1.4-1,2.1-1.6c0.9,1,1.7,1.9,2.6,2.8
		c-0.8,0.6-1.4,1.1-2.1,1.6c-0.6,0.5-0.8,1-0.3,1.6c0.5,0.5,1.1,0.5,1.6,0.1c0.7-0.6,1.5-1.1,2.2-1.7c0.9,1,1.9,1.9,2.7,2.9
		c0.6,0.7,1.3,0.9,2.3,0.8c6-0.6,12.1-1.2,18.1-1.8c0.7-0.1,1.5-0.1,1.6-1c0.1-0.9-0.7-1.1-1.4-1.2C121,8.6,116,7.9,110.9,7.2
		c-1.4-0.2-2.5-0.6-3.3-1.9c0.7-0.6,1.5-1.1,2.2-1.7c0.6-0.5,0.9-1,0.4-1.7c-0.5-0.6-1.1-0.4-1.7,0c-0.8,0.6-1.7,1.3-2.2,1.6
		c-1.1-0.8-2.1-1.6-3.1-2.4c0.8-0.6,1.5-1.2,2.2-1.7c0.6-0.4,0.7-1,0.3-1.5c-0.5-0.6-1.1-0.5-1.7-0.1c-0.8,0.6-1.5,1.1-2.1,1.6
		c-1.6-1.5-3.2-2.9-4.8-4.4c-1.1-1-1.3-1.1-2.6-0.3c-1.5,0.9-3,1.7-4.5,2.6c-0.6-3.2,0.3-6.7-2.9-9c1.7-0.2,1.8-0.5,1.7-1.9
		c-0.1-1.7-0.8-3.2-2.2-4.4c2.3-0.2,2.4-0.3,2.1-2.5c0-0.2-0.1-0.5-0.1-0.7c-0.9-4.6-3.6-8.3-7.2-11.4c-1.8-1.6-3.9-2.9-5.9-4.3
		c1.6-3,3.4-6,6.3-8.2c1.4-1.1,3-2,4.9-2.2c2.8-0.3,5,0.9,7.1,2.5c3.1,2.4,5.3,5.5,7.2,8.7c5.3,8.7,8.7,18.1,11.9,27.6
		c1.1,3.2,2,6.4,3,9.6c0.2,0.7,0.6,1.3,1.4,1c0.8-0.2,0.9-0.8,0.7-1.6c-0.1-0.2-0.1-0.5-0.2-0.7c-1.5-4.6-2.9-9.2-4.4-13.7
		c-2.9-8.4-6.2-16.6-11.1-24.2c-2.3-3.6-4.9-7.1-8.7-9.5c-4-2.6-8.3-2.5-12.2,0.2c-2.8,1.9-4.7,4.4-6.4,7.2c-0.5,0.9-1,1.8-1.6,2.7
		c-5.4-2-10.7-2-16,0c-0.2-0.4-0.3-0.6-0.4-0.9c-1.8-3.5-3.9-6.8-7.3-9.1c-3.3-2.3-6.8-2.6-10.4-0.7c-1.6,0.8-3,1.9-4.3,3.2
		c-3.9,3.7-6.5,8.2-8.9,12.9C21-21.7,17.4-10.7,14.1,0.4c-0.2,0.7-0.3,1.4,0.7,1.7C15.6,2.3,16,1.7,16.2,1
		c2.4-8.3,5.1-16.5,8.5-24.4c2.4-5.7,5-11.2,8.7-16.2c2-2.7,4.2-5.3,7.4-6.9c2.5-1.2,5-1.1,7.3,0.4c3.7,2.3,5.7,5.8,7.6,9.5
		c-3.4,1.7-6.3,3.9-8.6,6.6c-2.5,2.9-4.4,6.1-4.9,9.9c-0.2,2,0,2.1,2,2.2c0,0,0.1,0.1,0.1,0.2c-1.5,1.3-2.2,3-2.2,5
		c0,0.8,0.4,1.1,1.2,1.2c0.2,0,0.5,0,1.1,0c-3.4,2.5-2.4,6-3.1,9.1c-1.6-0.9-3.2-1.8-4.7-2.8c-0.8-0.5-1.4-0.5-2.2,0.2
		c-1.6,1.6-3.3,3-5,4.6c-0.7-0.5-1.4-1.1-2.2-1.7C26.6-2.6,26-2.6,25.6-2c-0.4,0.6-0.2,1.1,0.3,1.5c0.7,0.5,1.4,1.1,2.2,1.7
		c-1,0.9-2,1.7-2.9,2.5c-0.7-0.5-1.4-1.1-2.1-1.6c-0.6-0.5-1.4-1-2-0.2c-0.7,0.8,0.1,1.4,0.7,1.8c0.7,0.5,1.3,1,2.3,1.7
		c-1,0.6-1.8,1.3-2.7,1.4C16,7.8,10.6,8.6,5.2,9.3c-0.7,0.1-1.4,0.3-1.4,1.1c0,0.8,0.6,1,1.3,1.1c6.2,0.6,12.4,1.2,18.7,1.8
		c0.8,0.1,1.4-0.1,1.9-0.7c0.9-1,1.9-2,2.9-3c0.7,0.6,1.4,1.1,2,1.6c0.6,0.5,1.3,0.7,1.9,0C33,10.6,32.6,10,32,9.6
		c-0.6-0.5-1.3-1-2-1.5c0.9-0.9,1.7-1.8,2.6-2.8c0.8,0.6,1.5,1.1,2.2,1.7c0.6,0.5,1.3,0.7,1.9,0c0.5-0.7,0.1-1.2-0.5-1.6
		c-0.7-0.5-1.4-1.1-2.1-1.6c0.6-0.6,1.1-1.2,1.6-1.7c1.6,0.8,3.2,1.7,4.7,2.5c0.2,0.1,0.4,0.5,0.4,0.7c0,4,0,7.9,0,12
		c-1.9-1.1-3.8-2.2-5.6-3.3c-0.9-0.6-1.5-0.5-2.2,0.2c-2,1.8-4,3.6-6,5.5c-0.5-0.4-1.2-0.9-1.9-1.4c-0.6-0.5-1.2-0.7-1.8,0
		c-0.5,0.6-0.2,1.1,0.4,1.6c0.7,0.5,1.3,1,2.1,1.7c-1,0.9-2,1.6-3,2.4c-0.7-0.5-1.4-1.1-2.2-1.7c-0.6-0.5-1.3-0.6-1.8,0
		c-0.5,0.6-0.2,1.1,0.4,1.6c0.7,0.6,1.5,1.2,2.4,1.9c-0.7,0.2-1.1,0.4-1.6,0.5c-5.4,0.8-10.8,1.5-16.2,2.3c-0.7,0.1-1.4,0.3-1.3,1.2
		c0.1,0.8,0.7,0.9,1.4,1c6.3,0.6,12.5,1.2,18.8,1.8c0.5,0,1.1-0.2,1.5-0.5c0.8-0.7,1.4-1.5,2.1-2.2c0.9,0.7,1.6,1.3,2.5,1.8
		c0.4,0.2,1.2,0.2,1.5-0.1c0.6-0.4,0.3-1.1-0.2-1.5c-0.7-0.6-1.5-1.2-2.3-1.8c0.9-0.9,1.7-1.9,2.6-2.8c0.8,0.6,1.6,1.2,2.4,1.8
		c0.6,0.5,1.2,0.7,1.8,0c0.6-0.7,0.1-1.2-0.5-1.6c-0.7-0.6-1.4-1.1-2.2-1.7c0.8-0.9,1.7-1.8,2.5-2.7c2.4,1.2,4.6,2.4,6.9,3.7
		c0.2,0.1,0.4,0.5,0.5,0.8c0.4,2.4,0.8,4.9,1.3,7.3c0.2,1.3,0.6,2.7,0.9,4.2c-1.6-1-3.1-1.8-4.6-2.7c-1.3-0.8-1.8-0.6-2.3,0.8
		c-1.4,3.5-2.9,7.1-4.3,10.6c-0.4,1-0.9,2.1-1.3,3.1c-1.1-0.4-2.1-0.7-3.1-1c-0.7-0.2-1.4-0.2-1.7,0.6c-0.3,0.8,0.2,1.2,1,1.4
		c1,0.3,2,0.7,3.1,1c-0.5,1.2-1,2.3-1.4,3.4c-1.2-0.4-2.3-0.7-3.3-1.1c-0.7-0.3-1.4-0.2-1.7,0.6c-0.3,0.8,0.2,1.2,1,1.4
		c1.1,0.3,2.1,0.7,3.3,1c-0.6,1.4-1.1,2.7-1.7,4c-0.4,0.8-0.8,1.6-1.4,2.3c-3.3,4.1-6.7,8.2-10,12.3c-0.4,0.5-0.7,1.1-0.2,1.6
		c0.6,0.6,1.2,0.3,1.8-0.1c4.3-3.3,8.6-6.5,12.9-9.8c0.4-0.3,0.7-0.8,0.9-1.2c1.1-2.3,2.1-4.6,3.1-6.9c1.2,0.4,2.4,0.7,3.5,1.1
		c0.8,0.2,1.5,0.3,1.8-0.6c0.2-0.8-0.3-1.2-1-1.4c-1.1-0.3-2.2-0.7-3.3-1.1c0.5-1.2,1-2.3,1.5-3.4c1.2,0.4,2.4,0.8,3.5,1.1
		c0.7,0.2,1.4,0.3,1.7-0.5c0.3-0.8-0.2-1.2-1-1.4c-1.1-0.3-2.2-0.7-3.4-1.1c1.3-2.9,2.6-5.7,3.9-8.5c1.6,0.7,3.1,1.4,4.5,2.1
		c0.4,0.2,0.8,0.7,1,1.2c1.5,3.2,2.7,6.5,4.3,9.6c3.3,6.5,7.5,12.3,13.1,17.1c1.5,1.3,1.6,1.3,3.2,0.2C72.2,69.4,76,65,79,60.1
		c2.8-4.6,4.8-9.5,6.5-14.5c0.1-0.4,0.3-0.9,0.7-1.1c1.3-0.7,2.7-1.3,4.1-1.9c1.3,2.9,2.6,5.7,3.8,8.5c-1.2,0.4-2.3,0.8-3.4,1.1
		c-0.7,0.2-1.2,0.7-1,1.4c0.3,0.8,0.9,0.8,1.7,0.5c1.2-0.4,2.3-0.7,3.5-1.1c0.5,1.2,1,2.3,1.5,3.4c-1.2,0.4-2.3,0.8-3.4,1.1
		c-0.7,0.2-1.2,0.6-1,1.4c0.3,0.8,1,0.8,1.7,0.6c1.2-0.4,2.4-0.7,3.6-1.1c1.1,2.3,2.1,4.6,3.1,6.8c0.3,0.5,0.7,1.1,1.1,1.4
		c4.2,3.2,8.4,6.3,12.5,9.5c0.6,0.5,1.2,1,2,0.3c0.7-0.7,0.1-1.3-0.3-1.9c-0.1-0.1-0.1-0.2-0.2-0.2c-3.1-3.8-6.2-7.7-9.4-11.5
		c-1.7-2-2.1-4.4-3.3-6.7c1.2-0.4,2.2-0.7,3.3-1c0.7-0.2,1.3-0.6,1-1.4c-0.3-0.8-0.9-0.8-1.7-0.6c-1.1,0.4-2.2,0.7-3.4,1
		c-0.5-1.2-0.9-2.3-1.4-3.4c1.1-0.4,2.1-0.7,3.1-1c0.7-0.2,1.3-0.6,1-1.4c-0.3-0.7-0.9-0.8-1.6-0.6c-1,0.3-2.1,0.7-3.2,1
		c-0.2-0.3-0.3-0.6-0.4-0.9c-1.7-4.3-3.5-8.5-5.2-12.8c-0.6-1.4-1.1-1.6-2.4-0.8c-1.4,0.8-2.7,1.6-4.1,2.4c0.6-3.9,1.1-7.7,1.7-11.5
		c0-0.2,0.2-0.4,0.3-0.4c2.3-1.3,4.7-2.5,7.1-3.7c0.9,0.9,1.7,1.8,2.5,2.7c-0.8,0.6-1.6,1.2-2.3,1.8c-0.6,0.4-0.8,1-0.3,1.6
		c0.5,0.6,1.1,0.5,1.7,0c0.8-0.6,1.6-1.2,2.4-1.8c0.9,1,1.7,1.8,2.6,2.8c-0.8,0.6-1.5,1.1-2.2,1.7c-0.6,0.4-0.9,1-0.3,1.6
		c0.5,0.6,1.1,0.5,1.7,0c0.7-0.6,1.5-1.1,2.3-1.7c0.7,0.8,1.3,1.5,2.1,2.2c0.4,0.3,1.1,0.6,1.7,0.6c4.9-0.4,9.8-0.9,14.6-1.4
		c1.4-0.1,2.7-0.3,4.1-0.4c0.7-0.1,1.3-0.2,1.4-1C128.9,28.7,128.2,28.5,127.5,28.4z M40.2,2c-1.2-0.6-2.3-1.2-3.5-1.8
		c-1.5-0.8-1.5-0.8-2.7,0.5c-3.1,3.3-6.3,6.7-9.4,10c-0.4,0.4-0.8,0.6-1.5,0.6c-2.6-0.3-5.2-0.5-7.8-0.8c-0.3,0-0.7-0.1-1-0.2
		c0,0,0-0.1,0-0.1c2.5-0.4,4.9-0.8,7.4-1c1.1-0.1,1.8-0.5,2.6-1.3C28,4.2,31.7,0.7,35.3-2.9c0.1-0.1,0.2-0.2,0.4-0.3
		c1.7,1,3.4,2,5,3C41-0.1,41,0.5,41,0.9c0,0.4,0,0.9,0,1.5C40.7,2.2,40.4,2.1,40.2,2z M37.8,20.5c-0.9-0.5-1.8-0.9-2.6-1.4
		c-0.9-0.6-1.6-0.4-2.3,0.4c-3.1,3.4-6.3,6.8-9.5,10.2c-0.5,0.5-0.9,0.7-1.7,0.6c-2.9-0.3-5.8-0.6-8.7-0.9c0-0.1,0-0.1,0-0.2
		c2.5-0.4,4.9-0.7,7.4-1c1.1-0.1,1.9-0.5,2.7-1.3c3.6-3.6,7.3-7.2,11-10.8c0.1-0.1,0.2-0.2,0.4-0.3c2.1,1.3,4.3,2.5,6.4,3.8
		c0.3,0.2,0.4,0.7,0.5,1c0.1,0.5,0.1,1,0.2,1.7C40.1,21.7,39,21.1,37.8,20.5z M66.7-36.8c7.5-1,20,9.4,20,16.7h-20V-36.8z M78.3-18
		c1.9,0,3.8,0.4,5.6,0.9c1.6,0.4,2.6,1.6,2.9,3.4H44.4c0.2-1.4,0.9-2.4,2.2-3.1c1.8-0.9,3.8-1.2,5.8-1.2C61-18,69.7-18,78.3-18z
		 M64.4-36.9v16.8H44.3C45.5-28.3,55.5-36.5,64.4-36.9z M46.5-10.4c2.1-0.9,4.4-1.1,6.6-1.1c8.9,0,17.8,0,26.7,0.1
		c1.7,0,3.5,0.6,5.2,1.1c1.4,0.4,2.2,1.5,2.5,3H43.9C44.2-8.9,45.1-9.8,46.5-10.4z M45.2,42.2c-1.2-0.6-2.5-1.1-3.7-1.7
		c-1.2-0.6-1.6-0.4-2.2,0.7C35.9,48.8,32.5,56.4,29,64c-0.2,0.5-0.6,1-1.1,1.3c-1.6,1.3-3.3,2.5-5.1,3.6c0.6-0.8,1.2-1.6,1.9-2.3
		c2.5-2.6,4.1-5.6,5.3-8.9c2.6-6.8,5.4-13.5,8.2-20.2c0.1-0.3,0.3-0.7,0.5-1.1c1.9,1.1,3.8,2.1,5.5,3.3c0.6,0.5,0.8,1.5,1.2,2.2
		C45.4,42.1,45.3,42.1,45.2,42.2z M49,46.1c-3.4-9.1-5.2-18.6-5.8-28.3C42.8,10.5,42.9,3.3,43.6-4c0-0.4,0.1-0.7,0.1-1.2h21.3
		c0,0.4,0,0.8,0,1.2c-0.2,7.3-0.3,14.5-0.8,21.8C63.8,25.2,63,32.5,62,39.9c-0.7,5.4-1.8,10.7-4.2,15.6c-0.6,1.2-1.5,2.3-2.4,3.5
		C52.7,54.7,50.7,50.5,49,46.1z M65.8,71.2c-2.4-1.6-8.1-8.1-9.3-10.6c2.9-2.3,4.1-5.5,5.1-8.8c1.9-6,2.8-12.1,3.5-18.2
		c0.4-3.9,0.8-7.8,1.3-11.7c0.1,1.5,0.3,2.9,0.4,4.4c0.9,8.7,1.8,17.3,4.3,25.7c0.5,1.7,1.2,3.5,2,5.1c0.7,1.4,1.8,2.6,2.8,4.1
		C73.3,64.8,70,68.4,65.8,71.2z M88.5,38.9c1.4-0.6,2.6-1.5,4.1-2.4c1.1,2.7,2.2,5.3,3.2,7.8c2.4,5.9,4.8,11.9,7.3,17.8
		c0.4,1,1.3,1.9,2,2.8c1,1.3,2.1,2.6,3,4.1c-1.8-1.3-3.6-2.7-5.3-4.1c-0.3-0.2-0.4-0.6-0.5-0.9c-3.4-7.6-6.8-15.1-10.3-22.7
		c-0.6-1.3-0.9-1.4-2.2-0.8c-1.1,0.5-2.1,1-3.2,1.5C86.7,40.6,87.1,39.5,88.5,38.9z M87,28.5c-1.4,9.8-3.7,19.4-8.5,28.3
		c-0.4,0.7-0.8,1.4-1.3,2.4c-0.8-1.2-1.6-2.1-2.1-3.2c-2.1-4.2-3-8.7-3.8-13.2c-1.7-9.3-2.5-18.7-3.1-28.2C67.7,8.3,67.5,2.2,67.3-4
		c0-0.4,0-0.7,0-1.2h20.4c0.1,1.9,0.3,3.7,0.4,5.6C88.5,9.8,88.3,19.2,87,28.5z M90.3,0.4c0-0.3,0.3-0.7,0.6-0.8
		c1.6-1,3.2-1.9,4.6-2.7c1.8,1.6,3.6,3.2,5.3,4.8c2.2,2.1,4.3,4.3,6.5,6.4c0.5,0.5,1.2,0.8,1.9,0.9c2.6,0.4,5.1,0.8,7.8,1.3
		c-0.3,0.1-0.5,0.1-0.8,0.2c-2.7,0.3-5.5,0.5-8.2,0.7c-0.4,0-0.9-0.2-1.1-0.5c-3.2-3.4-6.5-6.8-9.6-10.3c-0.7-0.7-1.3-0.9-2.2-0.4
		c-1.4,0.8-2.9,1.6-4.6,2.4C90.3,1.6,90.2,1,90.3,0.4z M118.3,29.4c-3.1,0.3-6.1,0.6-9.2,0.9c-0.3,0-0.8-0.2-1-0.5
		c-3.2-3.4-6.5-6.8-9.7-10.3c-0.7-0.8-1.4-0.9-2.3-0.3c-2,1.1-4.1,2.2-6.3,3.3c0.1-0.8,0.1-1.5,0.2-2.1c0-0.3,0.3-0.5,0.5-0.7
		c2.1-1.3,4.3-2.5,6.1-3.6c2.1,1.9,4.2,3.7,6.2,5.5c2.1,2,4.1,4.1,6.2,6.1c0.4,0.4,1.2,0.5,1.9,0.6c2.5,0.4,4.9,0.7,7.4,1.1
		C118.3,29.3,118.3,29.3,118.3,29.4z"/>
	<path class="st1" d="M65.1-4c-0.2,7.3-0.3,14.5-0.8,21.8C63.8,25.2,63,32.5,62,39.9c-0.7,5.4-1.8,10.7-4.2,15.6
		c-0.6,1.2-1.5,2.3-2.4,3.5c-2.7-4.3-4.8-8.6-6.4-13c-3.4-9.1-5.2-18.6-5.8-28.3C42.8,10.5,42.9,3.3,43.6-4c0-0.4,0.1-0.7,0.1-1.2
		h21.3C65.1-4.7,65.1-4.3,65.1-4z"/>
	<path class="st1" d="M87,28.5c-1.4,9.8-3.7,19.4-8.5,28.3c-0.4,0.7-0.8,1.4-1.3,2.4c-0.8-1.2-1.6-2.1-2.1-3.2
		c-2.1-4.2-3-8.7-3.8-13.2c-1.7-9.3-2.5-18.7-3.1-28.2C67.7,8.3,67.5,2.2,67.3-4c0-0.4,0-0.7,0-1.2h20.4c0.1,1.9,0.3,3.7,0.4,5.6
		C88.5,9.8,88.3,19.2,87,28.5z"/>
	<path class="st2" d="M75.9,60.9c-2.6,3.8-5.9,7.4-10.1,10.2c-2.4-1.6-8.1-8.1-9.3-10.6c2.9-2.3,4.1-5.5,5.1-8.8
		c1.9-6,2.8-12.1,3.5-18.2c0.4-3.9,0.8-7.8,1.3-11.7c0.1,1.5,0.3,2.9,0.4,4.4c0.9,8.7,1.8,17.3,4.3,25.7c0.5,1.7,1.2,3.5,2,5.1
		C73.8,58.3,74.9,59.5,75.9,60.9z"/>
	<path class="st3" d="M86.7-20.1h-20v-16.7C74.2-37.8,86.7-27.4,86.7-20.1z"/>
	<path class="st3" d="M64.4-36.9v16.8H44.3C45.5-28.3,55.5-36.5,64.4-36.9z"/>
	<path class="st2" d="M86.8-13.7H44.4c0.2-1.4,0.9-2.4,2.2-3.1c1.8-0.9,3.8-1.2,5.8-1.2c8.7,0,17.3-0.1,26,0c1.9,0,3.8,0.4,5.6,0.9
		C85.5-16.6,86.5-15.5,86.8-13.7z"/>
	<path class="st2" d="M87.5-7.3H43.9c0.2-1.5,1.2-2.5,2.5-3.1c2.1-0.9,4.4-1.1,6.6-1.1c8.9,0,17.8,0,26.7,0.1c1.7,0,3.5,0.6,5.2,1.1
		C86.4-9.9,87.2-8.9,87.5-7.3z"/>
	<path class="st4" d="M45.5,42c-0.1,0.1-0.2,0.1-0.3,0.2c-1.2-0.6-2.5-1.1-3.7-1.7c-1.2-0.6-1.6-0.4-2.2,0.7
		C35.9,48.8,32.5,56.4,29,64c-0.2,0.5-0.6,1-1.1,1.3c-1.6,1.3-3.3,2.5-5.1,3.6c0.6-0.8,1.2-1.6,1.9-2.3c2.5-2.6,4.1-5.6,5.3-8.9
		c2.6-6.8,5.4-13.5,8.2-20.2c0.1-0.3,0.3-0.7,0.5-1.1c1.9,1.1,3.8,2.1,5.5,3.3C44.9,40.2,45.1,41.2,45.5,42z"/>
	<path class="st4" d="M108.1,68.9c-1.8-1.3-3.6-2.7-5.3-4.1c-0.3-0.2-0.4-0.6-0.5-0.9c-3.4-7.6-6.8-15.1-10.3-22.7
		c-0.6-1.3-0.9-1.4-2.2-0.8c-1.1,0.5-2.1,1-3.2,1.5c0.1-1.4,0.4-2.4,1.9-3.1c1.4-0.6,2.6-1.5,4.1-2.4c1.1,2.7,2.2,5.3,3.2,7.8
		c2.4,5.9,4.8,11.9,7.3,17.8c0.4,1,1.3,1.9,2,2.8C106.1,66.2,107.2,67.5,108.1,68.9z"/>
	<path class="st4" d="M118.3,29.2c0,0.1,0,0.1,0,0.2c-3.1,0.3-6.1,0.6-9.2,0.9c-0.3,0-0.8-0.2-1-0.5c-3.2-3.4-6.5-6.8-9.7-10.3
		c-0.7-0.8-1.4-0.9-2.3-0.3c-2,1.1-4.1,2.2-6.3,3.3c0.1-0.8,0.1-1.5,0.2-2.1c0-0.3,0.3-0.5,0.5-0.7c2.1-1.3,4.3-2.5,6.1-3.6
		c2.1,1.9,4.2,3.7,6.2,5.5c2.1,2,4.1,4.1,6.2,6.1c0.4,0.4,1.2,0.5,1.9,0.6C113.4,28.6,115.9,28.9,118.3,29.2z"/>
	<path class="st4" d="M41.4,22.3c-1.3-0.6-2.4-1.2-3.5-1.8c-0.9-0.5-1.8-0.9-2.6-1.4c-0.9-0.6-1.6-0.4-2.3,0.4
		c-3.1,3.4-6.3,6.8-9.5,10.2c-0.5,0.5-0.9,0.7-1.7,0.6c-2.9-0.3-5.8-0.6-8.7-0.9c0-0.1,0-0.1,0-0.2c2.5-0.4,4.9-0.7,7.4-1
		c1.1-0.1,1.9-0.5,2.7-1.3c3.6-3.6,7.3-7.2,11-10.8c0.1-0.1,0.2-0.2,0.4-0.3c2.1,1.3,4.3,2.5,6.4,3.8c0.3,0.2,0.4,0.7,0.5,1
		C41.3,21.1,41.3,21.6,41.4,22.3z"/>
	<path class="st4" d="M117,10.3c-0.3,0.1-0.5,0.1-0.8,0.2c-2.7,0.3-5.5,0.5-8.2,0.7c-0.4,0-0.9-0.2-1.1-0.5
		c-3.2-3.4-6.5-6.8-9.6-10.3c-0.7-0.7-1.3-0.9-2.2-0.4c-1.4,0.8-2.9,1.6-4.6,2.4c0-0.8-0.1-1.4-0.1-2c0-0.3,0.3-0.7,0.6-0.8
		c1.6-1,3.2-1.9,4.6-2.7c1.8,1.6,3.6,3.2,5.3,4.8c2.2,2.1,4.3,4.3,6.5,6.4c0.5,0.5,1.2,0.8,1.9,0.9C111.8,9.4,114.4,9.8,117,10.3z"
		/>
	<path class="st4" d="M41,2.3c-0.4-0.1-0.6-0.2-0.8-0.3c-1.2-0.6-2.3-1.2-3.5-1.8c-1.5-0.8-1.5-0.8-2.7,0.5c-3.1,3.3-6.3,6.7-9.4,10
		c-0.4,0.4-0.8,0.6-1.5,0.6c-2.6-0.3-5.2-0.5-7.8-0.8c-0.3,0-0.7-0.1-1-0.2c0,0,0-0.1,0-0.1c2.5-0.4,4.9-0.8,7.4-1
		c1.1-0.1,1.8-0.5,2.6-1.3C28,4.2,31.7,0.7,35.3-2.9c0.1-0.1,0.2-0.2,0.4-0.3c1.7,1,3.4,2,5,3C41-0.1,41,0.5,41,0.9
		C41.1,1.3,41,1.7,41,2.3z"/>
</g>
</svg>
